<svg width="160" height="40" viewBox="0 0 160 40" fill="none" xmlns="http://www.w3.org/2000/svg">
<path d="M33.2515 10.4443H47.0713V1.57422H51.0068V23.2803H47.0713V14.4102H33.2515V23.2803H29.3159V1.57422H33.2515V10.4443Z" fill="white"/>
<path d="M71.9863 17.8613C71.9863 18.4062 71.8905 18.9966 71.6987 19.6323C71.507 20.258 71.1942 20.8433 70.7603 21.3882C70.3364 21.923 69.7764 22.3721 69.0801 22.7354C68.3939 23.0986 67.5563 23.2803 66.5674 23.2803H59.4683C58.9233 23.2803 58.333 23.1844 57.6973 22.9927C57.0716 22.8009 56.4863 22.4932 55.9414 22.0693C55.4066 21.6354 54.9575 21.0754 54.5942 20.3892C54.231 19.6929 54.0493 18.8503 54.0493 17.8613C54.0493 17.3164 54.1452 16.7261 54.3369 16.0903C54.5286 15.4546 54.8364 14.8693 55.2603 14.3345C55.6942 13.7896 56.2542 13.3354 56.9404 12.9722C57.6367 12.6089 58.4793 12.4272 59.4683 12.4272H66.5674V16.1812H59.4683C58.9334 16.1812 58.5197 16.3477 58.2271 16.6807C57.9344 17.0036 57.7881 17.4072 57.7881 17.8916C57.7881 18.4062 57.9546 18.8099 58.2876 19.1025C58.6307 19.3851 59.0343 19.5264 59.4985 19.5264H66.5674C67.1022 19.5264 67.5159 19.3649 67.8086 19.042C68.1012 18.7191 68.2476 18.3154 68.2476 17.8311V12.3364C68.2476 11.8218 68.0861 11.4131 67.7632 11.1104C67.4504 10.8076 67.0518 10.6562 66.5674 10.6562H57.9243V6.91748H66.5674C67.1123 6.91748 67.6976 7.01335 68.3232 7.20508C68.959 7.39681 69.5443 7.70964 70.0791 8.14355C70.624 8.56738 71.0781 9.12744 71.4414 9.82373C71.8047 10.5099 71.9863 11.3475 71.9863 12.3364V17.8613Z" fill="white"/>
<path d="M91.1646 17.7554C91.1646 18.4315 91.0788 19.042 90.9072 19.5869C90.7357 20.1217 90.5086 20.596 90.2261 21.0098C89.9435 21.4134 89.6156 21.7616 89.2422 22.0542C88.8688 22.3368 88.4753 22.5688 88.0615 22.7505C87.6579 22.9321 87.2441 23.0684 86.8203 23.1592C86.4066 23.2399 86.013 23.2803 85.6396 23.2803H74.9834V19.3447H85.6094C86.1442 19.3447 86.5479 19.2085 86.8203 18.936C87.0928 18.6636 87.229 18.27 87.229 17.7554C87.1785 16.7059 86.6488 16.1812 85.6396 16.1812H79.5396C78.6717 16.1812 77.9351 16.0298 77.3296 15.7271C76.7241 15.4243 76.2297 15.0459 75.8462 14.5918C75.4728 14.1377 75.2004 13.6483 75.0288 13.1235C74.8674 12.5988 74.7866 12.1094 74.7866 11.6553C74.7866 10.7773 74.943 10.0407 75.2559 9.44531C75.5687 8.83984 75.9622 8.35042 76.4365 7.97705C76.9108 7.60368 77.4255 7.33626 77.9805 7.1748C78.5355 7.00326 79.0552 6.91748 79.5396 6.91748H89.2119V10.853H79.5698C79.368 10.853 79.2065 10.8783 79.0854 10.9287C78.9744 10.9691 78.8887 11.0296 78.8281 11.1104C78.7777 11.181 78.7474 11.2617 78.7373 11.3525C78.7272 11.4333 78.7222 11.514 78.7222 11.5947C78.7323 11.7562 78.7625 11.8823 78.813 11.9731C78.8634 12.064 78.924 12.1296 78.9946 12.1699C79.0754 12.2103 79.1611 12.2355 79.252 12.2456C79.3529 12.2456 79.4487 12.2456 79.5396 12.2456H85.6396C86.6488 12.2456 87.5065 12.4272 88.2129 12.7905C88.9193 13.1538 89.4894 13.613 89.9233 14.168C90.3573 14.7129 90.6701 15.3083 90.8618 15.9541C91.0636 16.5999 91.1646 17.2004 91.1646 17.7554Z" fill="white"/>
<path d="M112.129 23.2803H108.193V12.4272C108.193 11.9126 108.062 11.5241 107.8 11.2617C107.537 10.9893 107.144 10.853 106.619 10.853H99.52V6.91748H106.619C106.993 6.91748 107.386 6.96289 107.8 7.05371C108.214 7.13444 108.622 7.26562 109.026 7.44727C109.44 7.62891 109.833 7.86605 110.207 8.15869C110.58 8.44124 110.908 8.78939 111.19 9.20312C111.473 9.60677 111.7 10.076 111.872 10.6108C112.043 11.1457 112.129 11.7511 112.129 12.4272V23.2803ZM97.9307 23.2803H93.9951V0H97.9307V23.2803Z" fill="white"/>
<path d="M134.017 14.4102H121.589V10.4443H134.017V14.4102ZM135.788 23.2803H121.589C121.044 23.2803 120.449 23.1844 119.803 22.9927C119.157 22.8009 118.557 22.4881 118.002 22.0542C117.457 21.6102 116.998 21.04 116.625 20.3438C116.261 19.6374 116.08 18.7746 116.08 17.7554V3.55713C116.08 3.28467 116.13 3.02734 116.231 2.78516C116.332 2.54297 116.468 2.33105 116.64 2.14941C116.821 1.96777 117.033 1.8265 117.275 1.72559C117.518 1.62467 117.78 1.57422 118.062 1.57422H135.788V5.50977H120.015V17.7554C120.015 18.27 120.151 18.6636 120.424 18.936C120.696 19.2085 121.095 19.3447 121.62 19.3447H135.788V23.2803Z" fill="white"/>
<path d="M157.857 6.91748L150.788 14.6372L158.75 23.2803H153.331L148.094 17.5737L142.856 23.2803H137.422L145.369 14.6069L138.331 6.91748H143.719L148.063 11.6553L152.438 6.91748H157.857Z" fill="white"/>
<path d="M2.73778 6.56412H6.24148L7.44741 1.28027H11.4074L10.2178 6.56412H14.2919L15.4815 1.28027H19.4578L18.2519 6.56412H22L21.1526 10.2948H17.4207L16.557 14.2017H20.1585L19.3274 17.9324H15.7259L14.52 23.2803H10.5437L11.7496 17.9324H7.67556L6.46963 23.2803H2.50963L3.69926 17.9324H0L0.896296 14.2017H4.53037L5.41037 10.2948H1.84148L2.73778 6.56412ZM8.50667 14.2017H12.5807L13.4444 10.2948H9.37037L8.50667 14.2017Z" fill="#C2F051"/>
<path d="M28.9399 32.2005H31.0499C31.3166 32.2005 31.5866 32.2305 31.8599 32.2905C32.1333 32.3438 32.3766 32.4405 32.5899 32.5805C32.8099 32.7138 32.9866 32.8972 33.1199 33.1305C33.2599 33.3638 33.3299 33.6572 33.3299 34.0105C33.3299 34.3838 33.2166 34.7105 32.9899 34.9905C32.7633 35.2638 32.4599 35.4438 32.0799 35.5305V35.5505C32.5399 35.6038 32.9199 35.7838 33.2199 36.0905C33.5266 36.3905 33.6799 36.8005 33.6799 37.3205C33.6799 37.6138 33.6166 37.8838 33.4899 38.1305C33.3699 38.3705 33.1966 38.5772 32.9699 38.7505C32.7433 38.9172 32.4666 39.0472 32.1399 39.1405C31.8133 39.2338 31.4466 39.2805 31.0399 39.2805H28.9399V32.2005ZM29.6599 35.3005H31.1099C31.2833 35.3005 31.4566 35.2805 31.6299 35.2405C31.8099 35.2005 31.9733 35.1338 32.1199 35.0405C32.2666 34.9405 32.3833 34.8105 32.4699 34.6505C32.5633 34.4905 32.6099 34.2938 32.6099 34.0605C32.6099 33.8338 32.5633 33.6438 32.4699 33.4905C32.3833 33.3305 32.2633 33.2005 32.1099 33.1005C31.9566 33.0005 31.7766 32.9305 31.5699 32.8905C31.3633 32.8438 31.1433 32.8205 30.9099 32.8205H29.6599V35.3005ZM29.6599 38.6605H30.9999C31.2599 38.6605 31.5066 38.6372 31.7399 38.5905C31.9799 38.5372 32.1866 38.4572 32.3599 38.3505C32.5399 38.2372 32.6833 38.0938 32.7899 37.9205C32.8966 37.7405 32.9499 37.5272 32.9499 37.2805C32.9499 36.8138 32.7899 36.4672 32.4699 36.2405C32.1566 36.0072 31.7099 35.8905 31.1299 35.8905H29.6599V38.6605Z" fill="#C4C4C4"/>
<path d="M37.0174 38.6405H40.3174V39.2805H36.2974V32.2005H37.0174V38.6405Z" fill="#C4C4C4"/>
<path d="M49.0923 35.7405C49.0923 36.2805 48.999 36.7772 48.8123 37.2305C48.6256 37.6838 48.3656 38.0772 48.0323 38.4105C47.7056 38.7372 47.3156 38.9938 46.8623 39.1805C46.4156 39.3672 45.929 39.4605 45.4023 39.4605C44.8756 39.4605 44.3856 39.3672 43.9323 39.1805C43.4856 38.9938 43.0956 38.7372 42.7623 38.4105C42.4356 38.0772 42.179 37.6838 41.9923 37.2305C41.8056 36.7772 41.7123 36.2805 41.7123 35.7405C41.7123 35.2005 41.8056 34.7038 41.9923 34.2505C42.179 33.7972 42.4356 33.4072 42.7623 33.0805C43.0956 32.7472 43.4856 32.4872 43.9323 32.3005C44.3856 32.1138 44.8756 32.0205 45.4023 32.0205C45.929 32.0205 46.4156 32.1138 46.8623 32.3005C47.3156 32.4872 47.7056 32.7472 48.0323 33.0805C48.3656 33.4072 48.6256 33.7972 48.8123 34.2505C48.999 34.7038 49.0923 35.2005 49.0923 35.7405ZM48.3323 35.7405C48.3323 35.3272 48.2656 34.9338 48.1323 34.5605C47.999 34.1872 47.8056 33.8605 47.5523 33.5805C47.299 33.2938 46.989 33.0672 46.6223 32.9005C46.2623 32.7338 45.8556 32.6505 45.4023 32.6505C44.949 32.6505 44.539 32.7338 44.1723 32.9005C43.8123 33.0672 43.5056 33.2938 43.2523 33.5805C42.999 33.8605 42.8056 34.1872 42.6723 34.5605C42.539 34.9338 42.4723 35.3272 42.4723 35.7405C42.4723 36.1538 42.539 36.5472 42.6723 36.9205C42.8056 37.2938 42.999 37.6205 43.2523 37.9005C43.5056 38.1805 43.8123 38.4038 44.1723 38.5705C44.539 38.7372 44.949 38.8205 45.4023 38.8205C45.8556 38.8205 46.2623 38.7372 46.6223 38.5705C46.989 38.4038 47.299 38.1805 47.5523 37.9005C47.8056 37.6205 47.999 37.2938 48.1323 36.9205C48.2656 36.5472 48.3323 36.1538 48.3323 35.7405Z" fill="#C4C4C4"/>
<path d="M57.5484 38.1405C57.4284 38.3205 57.2817 38.4905 57.1084 38.6505C56.9417 38.8105 56.745 38.9505 56.5184 39.0705C56.2984 39.1905 56.0517 39.2838 55.7784 39.3505C55.5117 39.4238 55.2184 39.4605 54.8984 39.4605C54.365 39.4605 53.8717 39.3672 53.4184 39.1805C52.965 38.9938 52.575 38.7372 52.2484 38.4105C51.9217 38.0772 51.665 37.6838 51.4784 37.2305C51.2984 36.7772 51.2084 36.2805 51.2084 35.7405C51.2084 35.2005 51.3017 34.7038 51.4884 34.2505C51.675 33.7972 51.9317 33.4072 52.2584 33.0805C52.5917 32.7472 52.9817 32.4872 53.4284 32.3005C53.8817 32.1138 54.3717 32.0205 54.8984 32.0205C55.1584 32.0205 55.4117 32.0472 55.6584 32.1005C55.9117 32.1538 56.1484 32.2305 56.3684 32.3305C56.5884 32.4238 56.7884 32.5405 56.9684 32.6805C57.1484 32.8138 57.2984 32.9672 57.4184 33.1405L56.8184 33.5805C56.745 33.4672 56.645 33.3538 56.5184 33.2405C56.3984 33.1272 56.255 33.0272 56.0884 32.9405C55.9217 32.8538 55.7384 32.7838 55.5384 32.7305C55.345 32.6772 55.135 32.6505 54.9084 32.6505C54.4484 32.6505 54.035 32.7338 53.6684 32.9005C53.3084 33.0672 53.0017 33.2938 52.7484 33.5805C52.495 33.8605 52.3017 34.1872 52.1684 34.5605C52.035 34.9338 51.9684 35.3272 51.9684 35.7405C51.9684 36.1538 52.035 36.5472 52.1684 36.9205C52.3084 37.2938 52.505 37.6238 52.7584 37.9105C53.0117 38.1905 53.3184 38.4138 53.6784 38.5805C54.045 38.7472 54.455 38.8305 54.9084 38.8305C55.315 38.8305 55.7017 38.7472 56.0684 38.5805C56.435 38.4138 56.7417 38.1472 56.9884 37.7805L57.5484 38.1405Z" fill="#C4C4C4"/>
<path d="M60.5056 35.3805H60.5156L63.8856 32.2005H64.9156L61.3456 35.4105L65.1156 39.2805H64.0556L60.5156 35.5105H60.5056V39.2805H59.7856V32.2005H60.5056V35.3805Z" fill="#C4C4C4"/>
<path d="M72.7808 38.1405C72.6608 38.3205 72.5141 38.4905 72.3408 38.6505C72.1741 38.8105 71.9775 38.9505 71.7508 39.0705C71.5308 39.1905 71.2841 39.2838 71.0108 39.3505C70.7441 39.4238 70.4508 39.4605 70.1308 39.4605C69.5975 39.4605 69.1041 39.3672 68.6508 39.1805C68.1975 38.9938 67.8075 38.7372 67.4808 38.4105C67.1541 38.0772 66.8975 37.6838 66.7108 37.2305C66.5308 36.7772 66.4408 36.2805 66.4408 35.7405C66.4408 35.2005 66.5341 34.7038 66.7208 34.2505C66.9075 33.7972 67.1641 33.4072 67.4908 33.0805C67.8241 32.7472 68.2141 32.4872 68.6608 32.3005C69.1141 32.1138 69.6041 32.0205 70.1308 32.0205C70.3908 32.0205 70.6441 32.0472 70.8908 32.1005C71.1441 32.1538 71.3808 32.2305 71.6008 32.3305C71.8208 32.4238 72.0208 32.5405 72.2008 32.6805C72.3808 32.8138 72.5308 32.9672 72.6508 33.1405L72.0508 33.5805C71.9775 33.4672 71.8775 33.3538 71.7508 33.2405C71.6308 33.1272 71.4875 33.0272 71.3208 32.9405C71.1541 32.8538 70.9708 32.7838 70.7708 32.7305C70.5775 32.6772 70.3675 32.6505 70.1408 32.6505C69.6808 32.6505 69.2675 32.7338 68.9008 32.9005C68.5408 33.0672 68.2341 33.2938 67.9808 33.5805C67.7275 33.8605 67.5341 34.1872 67.4008 34.5605C67.2675 34.9338 67.2008 35.3272 67.2008 35.7405C67.2008 36.1538 67.2675 36.5472 67.4008 36.9205C67.5408 37.2938 67.7375 37.6238 67.9908 37.9105C68.2441 38.1905 68.5508 38.4138 68.9108 38.5805C69.2775 38.7472 69.6875 38.8305 70.1408 38.8305C70.5475 38.8305 70.9341 38.7472 71.3008 38.5805C71.6675 38.4138 71.9741 38.1472 72.2208 37.7805L72.7808 38.1405Z" fill="#C4C4C4"/>
<path d="M75.0181 32.2005H75.7381V35.2705H79.5981V32.2005H80.3181V39.2805H79.5981V35.9305H75.7381V39.2805H75.0181V32.2005Z" fill="#C4C4C4"/>
<path d="M83.1458 39.2805H82.3558L85.4158 32.2005H86.1158L89.1558 39.2805H88.3558L87.5758 37.4205H83.9158L83.1458 39.2805ZM84.1858 36.7605H87.3058L85.7458 33.0005L84.1858 36.7605Z" fill="#C4C4C4"/>
<path d="M91.9178 39.2805H91.1978V32.2005H91.9178V39.2805Z" fill="#C4C4C4"/>
<path d="M99.8154 38.2305H99.8354V32.2005H100.555V39.2805H99.6554L95.5354 33.1905H95.5154V39.2805H94.7954V32.2005H95.6954L99.8154 38.2305Z" fill="#C4C4C4"/>
<path d="M110.362 33.3405C110.209 33.1272 110.012 32.9572 109.772 32.8305C109.532 32.6972 109.242 32.6305 108.902 32.6305C108.729 32.6305 108.552 32.6572 108.372 32.7105C108.192 32.7638 108.029 32.8472 107.882 32.9605C107.735 33.0672 107.615 33.2038 107.522 33.3705C107.435 33.5372 107.392 33.7338 107.392 33.9605C107.392 34.1872 107.435 34.3738 107.522 34.5205C107.609 34.6672 107.722 34.7938 107.862 34.9005C108.009 35.0005 108.172 35.0838 108.352 35.1505C108.539 35.2172 108.732 35.2838 108.932 35.3505C109.179 35.4305 109.425 35.5172 109.672 35.6105C109.925 35.7038 110.152 35.8272 110.352 35.9805C110.552 36.1272 110.715 36.3172 110.842 36.5505C110.969 36.7772 111.032 37.0672 111.032 37.4205C111.032 37.7738 110.962 38.0805 110.822 38.3405C110.689 38.5938 110.512 38.8038 110.292 38.9705C110.079 39.1372 109.832 39.2605 109.552 39.3405C109.279 39.4205 109.002 39.4605 108.722 39.4605C108.509 39.4605 108.295 39.4372 108.082 39.3905C107.869 39.3505 107.665 39.2872 107.472 39.2005C107.279 39.1138 107.099 39.0038 106.932 38.8705C106.765 38.7372 106.619 38.5838 106.492 38.4105L107.112 37.9505C107.265 38.2038 107.479 38.4172 107.752 38.5905C108.032 38.7572 108.359 38.8405 108.732 38.8405C108.912 38.8405 109.095 38.8138 109.282 38.7605C109.469 38.7005 109.635 38.6138 109.782 38.5005C109.935 38.3805 110.059 38.2372 110.152 38.0705C110.252 37.8972 110.302 37.6972 110.302 37.4705C110.302 37.2238 110.252 37.0205 110.152 36.8605C110.059 36.6938 109.932 36.5572 109.772 36.4505C109.612 36.3372 109.429 36.2438 109.222 36.1705C109.015 36.0972 108.799 36.0238 108.572 35.9505C108.339 35.8772 108.109 35.7938 107.882 35.7005C107.655 35.6072 107.452 35.4872 107.272 35.3405C107.092 35.1872 106.945 35.0005 106.832 34.7805C106.725 34.5605 106.672 34.2905 106.672 33.9705C106.672 33.6305 106.739 33.3372 106.872 33.0905C107.012 32.8438 107.192 32.6405 107.412 32.4805C107.632 32.3205 107.875 32.2038 108.142 32.1305C108.409 32.0572 108.672 32.0205 108.932 32.0205C109.412 32.0205 109.822 32.1072 110.162 32.2805C110.502 32.4472 110.759 32.6472 110.932 32.8805L110.362 33.3405Z" fill="#C4C4C4"/>
<path d="M114.297 38.6405H118.087V39.2805H113.577V32.2005H117.967V32.8405H114.297V35.2805H117.727V35.9105H114.297V38.6405Z" fill="#C4C4C4"/>
<path d="M126.455 38.1405C126.335 38.3205 126.188 38.4905 126.015 38.6505C125.848 38.8105 125.651 38.9505 125.425 39.0705C125.205 39.1905 124.958 39.2838 124.685 39.3505C124.418 39.4238 124.125 39.4605 123.805 39.4605C123.271 39.4605 122.778 39.3672 122.325 39.1805C121.871 38.9938 121.481 38.7372 121.155 38.4105C120.828 38.0772 120.571 37.6838 120.385 37.2305C120.205 36.7772 120.115 36.2805 120.115 35.7405C120.115 35.2005 120.208 34.7038 120.395 34.2505C120.581 33.7972 120.838 33.4072 121.165 33.0805C121.498 32.7472 121.888 32.4872 122.335 32.3005C122.788 32.1138 123.278 32.0205 123.805 32.0205C124.065 32.0205 124.318 32.0472 124.565 32.1005C124.818 32.1538 125.055 32.2305 125.275 32.3305C125.495 32.4238 125.695 32.5405 125.875 32.6805C126.055 32.8138 126.205 32.9672 126.325 33.1405L125.725 33.5805C125.651 33.4672 125.551 33.3538 125.425 33.2405C125.305 33.1272 125.161 33.0272 124.995 32.9405C124.828 32.8538 124.645 32.7838 124.445 32.7305C124.251 32.6772 124.041 32.6505 123.815 32.6505C123.355 32.6505 122.941 32.7338 122.575 32.9005C122.215 33.0672 121.908 33.2938 121.655 33.5805C121.401 33.8605 121.208 34.1872 121.075 34.5605C120.941 34.9338 120.875 35.3272 120.875 35.7405C120.875 36.1538 120.941 36.5472 121.075 36.9205C121.215 37.2938 121.411 37.6238 121.665 37.9105C121.918 38.1905 122.225 38.4138 122.585 38.5805C122.951 38.7472 123.361 38.8305 123.815 38.8305C124.221 38.8305 124.608 38.7472 124.975 38.5805C125.341 38.4138 125.648 38.1472 125.895 37.7805L126.455 38.1405Z" fill="#C4C4C4"/>
<path d="M131.302 39.4605C130.769 39.4605 130.332 39.3705 129.992 39.1905C129.652 39.0038 129.382 38.7705 129.182 38.4905C128.982 38.2105 128.842 37.9072 128.762 37.5805C128.689 37.2472 128.652 36.9338 128.652 36.6405V32.2005H129.372V36.5605C129.372 36.8472 129.405 37.1272 129.472 37.4005C129.539 37.6672 129.645 37.9072 129.792 38.1205C129.945 38.3272 130.145 38.4972 130.392 38.6305C130.639 38.7572 130.942 38.8205 131.302 38.8205C131.662 38.8205 131.965 38.7572 132.212 38.6305C132.459 38.4972 132.655 38.3272 132.802 38.1205C132.955 37.9072 133.065 37.6672 133.132 37.4005C133.199 37.1272 133.232 36.8472 133.232 36.5605V32.2005H133.952V36.6405C133.952 36.9338 133.912 37.2472 133.832 37.5805C133.759 37.9072 133.622 38.2105 133.422 38.4905C133.222 38.7705 132.949 39.0038 132.602 39.1905C132.262 39.3705 131.829 39.4605 131.302 39.4605Z" fill="#C4C4C4"/>
<path d="M137.512 39.2805H136.792V32.2005H138.872C139.218 32.2005 139.538 32.2338 139.832 32.3005C140.132 32.3672 140.388 32.4772 140.602 32.6305C140.822 32.7772 140.992 32.9705 141.112 33.2105C141.232 33.4505 141.292 33.7438 141.292 34.0905C141.292 34.3505 141.245 34.5872 141.152 34.8005C141.058 35.0138 140.932 35.2005 140.772 35.3605C140.612 35.5138 140.422 35.6372 140.202 35.7305C139.982 35.8238 139.742 35.8838 139.482 35.9105L141.552 39.2805H140.672L138.712 35.9705H137.512V39.2805ZM137.512 35.3505H138.762C139.342 35.3505 139.788 35.2472 140.102 35.0405C140.415 34.8272 140.572 34.5105 140.572 34.0905C140.572 33.8572 140.528 33.6605 140.442 33.5005C140.355 33.3405 140.235 33.2105 140.082 33.1105C139.928 33.0105 139.742 32.9372 139.522 32.8905C139.302 32.8438 139.058 32.8205 138.792 32.8205H137.512V35.3505Z" fill="#C4C4C4"/>
<path d="M144.498 39.2805H143.778V32.2005H144.498V39.2805Z" fill="#C4C4C4"/>
<path d="M149.645 39.2805H148.925V32.8405H146.555V32.2005H152.015V32.8405H149.645V39.2805Z" fill="#C4C4C4"/>
<path d="M156.391 39.2805H155.671V36.2305L153.021 32.2005H153.921L156.051 35.6305L158.201 32.2005H159.041L156.391 36.2305V39.2805Z" fill="#C4C4C4"/>
</svg>
